<svg width="16" height="16" viewBox="0 0 16 16" fill="none" xmlns="http://www.w3.org/2000/svg">
<g clip-path="url(#clip0_24_126)">
<rect width="4" height="4" rx="2" transform="matrix(-1 0 0 1 10 6)" fill="white"/>
<path d="M8.23495 11.1461C8.15516 10.9267 7.84484 10.9267 7.76505 11.1461L6.12198 15.6646C6.06269 15.8276 6.18343 16 6.35693 16H9.64307C9.81657 16 9.93731 15.8276 9.87802 15.6646L8.23495 11.1461Z" fill="#FC7F7F"/>
<path d="M8.23495 11.1461C8.15516 10.9267 7.84484 10.9267 7.76505 11.1461L6.12198 15.6646C6.06269 15.8276 6.18343 16 6.35693 16H9.64307C9.81657 16 9.93731 15.8276 9.87802 15.6646L8.23495 11.1461Z" fill="#FC7F7F"/>
<path d="M10.8421 9.3697C10.6121 9.32909 10.457 9.59783 10.6071 9.77664L13.6987 13.4588C13.8102 13.5917 14.0199 13.5733 14.1066 13.4231L15.7497 10.5772C15.8365 10.4269 15.7475 10.2362 15.5767 10.206L10.8421 9.3697Z" fill="#FC7F7F"/>
<path d="M5.39289 9.77641C5.54302 9.5976 5.38786 9.32886 5.15794 9.36947L0.423305 10.2057C0.252459 10.2359 0.163538 10.4267 0.250284 10.5769L1.89336 13.4228C1.9801 13.5731 2.18977 13.5914 2.30133 13.4586L5.39289 9.77641Z" fill="#FC7F7F"/>
<path d="M7.76505 4.85389C7.84484 5.07331 8.15516 5.07331 8.23495 4.85389L9.87802 0.335435C9.93731 0.17239 9.81657 0 9.64307 0H6.35693C6.18343 0 6.06269 0.17239 6.12198 0.335436L7.76505 4.85389Z" fill="#FC7F7F"/>
<path d="M5.15794 6.6303C5.38786 6.67091 5.54302 6.40217 5.39289 6.22336L2.30133 2.54118C2.18977 2.40832 1.9801 2.42669 1.89336 2.57694L0.250283 5.42283C0.163538 5.57308 0.252459 5.76384 0.423305 5.79402L5.15794 6.6303Z" fill="#FC7F7F"/>
<path d="M10.6071 6.22359C10.457 6.4024 10.6121 6.67114 10.8421 6.63053L15.5767 5.79425C15.7475 5.76407 15.8365 5.57331 15.7497 5.42306L14.1066 2.57717C14.0199 2.42692 13.8102 2.40855 13.6987 2.54142L10.6071 6.22359Z" fill="#FC7F7F"/>
</g>
<defs>
<clipPath id="clip0_24_126">
<rect width="16" height="16" fill="white"/>
</clipPath>
</defs>
</svg>
